<?xml version="1.0" encoding="utf-8"?>
<!-- Generator: Adobe Illustrator 18.0.0, SVG Export Plug-In . SVG Version: 6.00 Build 0)  -->
<!DOCTYPE svg PUBLIC "-//W3C//DTD SVG 1.1//EN" "http://www.w3.org/Graphics/SVG/1.1/DTD/svg11.dtd">
<svg version="1.1" id="Layer_1" xmlns="http://www.w3.org/2000/svg" xmlns:xlink="http://www.w3.org/1999/xlink" x="0px" y="0px"
	 viewBox="0 0 85 62.4" enable-background="new 0 0 85 62.4" xml:space="preserve">
<path fill-rule="evenodd" clip-rule="evenodd" fill="#1A7CB6" d="M36.2,39.9c7.3-3.2,15.8-7.5,23.3-7c14.8,1,14.1,15,14.1,15
	s-1.7-4.8-7-5.8c-7.2-1.4-16.2,2.5-23.9,6c-5.1,2.4-11.7,5-17.3,4.6c-14.8-1-14-14.4-14-14.4s1.4,4.6,6.7,5.8
	C22.1,45.1,29.4,42.9,36.2,39.9z"/>
<linearGradient id="SVGID_1_" gradientUnits="userSpaceOnUse" x1="18.1936" y1="24.9921" x2="65.0608" y2="24.9921">
	<stop  offset="0" style="stop-color:#43C4E3"/>
	<stop  offset="1" style="stop-color:#2AA9E0"/>
</linearGradient>
<path fill="url(#SVGID_1_)" d="M57.2,20.6c0-0.2,0-0.4,0-0.6c0-5.7-4.7-10.4-10.4-10.4c-5.7,0-10.4,4.7-10.4,10.4c0,0,0,0,0,0.1
	c0,0.1-0.1,0.3-0.1,0.4c-1.4-1.8-3.6-3-6.1-3c-4.2,0-7.6,3.4-7.6,7.6c0,1.9,0.7,3.6,1.8,4.9c-0.1,0-0.3,0-0.4,0
	c-3.3,0-5.9,2.3-5.9,5.1c0,2.8,2.7,5.1,5.9,5.1c2.6,0,6.4-1.4,6.4-1.4c1.4-0.5,2.9-1.1,4.4-1.8c0.8-0.3,1.5-0.7,2.3-1
	c7-3.1,15-6.7,22.4-6.2c2,0.1,3.7,0.5,5.3,1c0.1-0.4,0.1-0.8,0.1-1.2C65.1,25.1,61.7,21.3,57.2,20.6z"/>
</svg>
